<?xml version="1.0" standalone="no"?>
<!DOCTYPE svg PUBLIC "-//W3C//DTD SVG 20010904//EN"
 "http://www.w3.org/TR/2001/REC-SVG-20010904/DTD/svg10.dtd">
<svg version="1.0" xmlns="http://www.w3.org/2000/svg"
 width="512.000000pt" height="512.000000pt" viewBox="0 0 512.000000 512.000000"
 preserveAspectRatio="xMidYMid meet">

<g transform="translate(0.000000,512.000000) scale(0.100000,-0.100000)"
fill="#000000" stroke="none">
<path d="M190 3773 c-28 -10 -66 -37 -102 -73 -91 -91 -89 -77 -86 -676 3
-506 3 -509 26 -555 27 -55 83 -113 137 -142 38 -21 54 -22 382 -25 l342 -3 3
-373 3 -372 30 -59 c94 -184 347 -214 484 -59 75 85 71 22 71 1124 0 1103 4
1038 -72 1125 -155 176 -446 108 -505 -117 -9 -39 -13 -135 -13 -365 l0 -313
-150 0 -150 0 0 323 c0 380 -3 395 -81 481 -81 89 -204 119 -319 79z m175
-122 c46 -21 79 -54 94 -94 7 -18 11 -163 11 -408 l0 -379 270 0 269 0 3 393
3 394 29 37 c80 105 245 94 302 -21 18 -37 19 -74 19 -1013 0 -939 -1 -976
-19 -1013 -57 -115 -222 -126 -302 -21 l-29 37 -3 423 -3 423 -383 3 -384 3
-43 30 c-82 58 -79 36 -79 592 0 324 4 501 11 520 22 59 100 113 164 113 17 0
48 -9 70 -19z"/>
<path d="M2421 3775 c-130 -24 -228 -69 -338 -152 -93 -70 -163 -157 -218
-268 -81 -164 -79 -141 -83 -760 -3 -599 -1 -633 55 -772 73 -183 237 -350
419 -426 457 -192 970 81 1069 570 14 68 16 154 13 628 -4 619 -2 596 -82 760
-25 50 -70 120 -100 156 -99 118 -260 218 -408 254 -93 22 -240 27 -327 10z
m319 -131 c103 -30 209 -93 284 -169 80 -80 125 -150 164 -257 l27 -73 0 -585
0 -585 -27 -73 c-39 -107 -84 -177 -164 -257 -76 -77 -181 -139 -289 -171 -83
-25 -267 -25 -349 0 -192 58 -348 191 -428 364 -58 127 -59 140 -56 750 l3
557 27 73 c39 107 84 177 164 257 96 97 236 168 369 189 56 8 220 -3 275 -20z"/>
<path d="M2458 3294 c-63 -19 -148 -98 -179 -166 l-24 -53 0 -515 0 -515 26
-56 c53 -112 138 -170 259 -177 135 -7 241 56 299 178 l26 55 0 515 0 515 -24
53 c-32 71 -115 147 -183 167 -63 18 -138 18 -200 -1z m217 -138 c76 -58 75
-50 75 -596 0 -449 -2 -488 -19 -525 -29 -65 -104 -115 -171 -115 -36 0 -93
23 -125 51 -66 58 -66 58 -63 605 l3 490 27 42 c41 61 88 83 169 79 55 -2 73
-7 104 -31z"/>
<path d="M3837 3776 c-87 -32 -152 -98 -182 -187 -14 -39 -15 -117 -13 -565 3
-513 3 -519 25 -560 34 -63 66 -97 125 -129 l53 -30 342 -3 342 -3 3 -377 c3
-369 3 -378 26 -419 59 -111 147 -166 267 -166 120 0 208 55 267 166 l23 42 0
1015 0 1015 -23 42 c-59 111 -147 166 -267 166 -120 0 -208 -55 -267 -166 -22
-41 -23 -51 -26 -384 l-3 -343 -149 0 -149 0 -3 343 -3 342 -27 51 c-34 64
-105 128 -165 148 -56 19 -144 20 -196 2z m160 -121 c48 -20 71 -41 94 -87 18
-35 19 -64 19 -418 l0 -380 270 0 270 0 0 386 c0 265 4 392 11 407 55 106 191
139 275 65 68 -60 64 14 64 -1068 0 -1082 4 -1008 -64 -1068 -84 -74 -220 -41
-275 65 -8 15 -11 150 -11 437 l0 416 -362 0 c-219 0 -378 4 -400 10 -44 13
-93 52 -113 91 -22 41 -22 1016 -1 1057 45 85 139 122 223 87z"/>
</g>
</svg>
